{"title":"Quantum.Love.[Une.Rencontre].2014.DVDRip.x264.HORiZON-ArtSubs","uid":10941855,"size":1769576910,"categoryP":"video","categoryS":"movies","magnet":"?xt=urn:btih:4b504cad1768babc28c03cabb5a6b61c7827f29d&amp;dn=Quantum.Love.%5BUne.Rencontre%5D.2014.DVDRip.x264.HORiZON-ArtSubs&amp;tr=udp%3A%2F%2Ftracker.openbittorrent.com%3A80&amp;tr=udp%3A%2F%2Fopen.demonii.com%3A1337&amp;tr=udp%3A%2F%2Ftracker.coppersurfer.tk%3A6969&amp;tr=udp%3A%2F%2Fexodus.desync.com%3A6969","seeders":36,"leechers":2,"uploader":"lletaif","files":1,"time":1409544140,"description":"Title:\nUne Rencontre Aka Quantum Love\n\n\nLanguage:\nFrench\n\n\nSubtitle:\nFrench\n\n\nIMDB: &lt;a href=&quot;\nhttp://www.imdb.com/title/tt2760634/?ref_=nv_sr_1&quot; rel=&quot;nofollow&quot; target=&quot;_NEW&quot;&gt;\nhttp://www.imdb.com/title/tt2760634/?ref_=nv_sr_1&lt;/a&gt;\n\n\nPlot:\nA family man's encounter with a beautiful woman develops into a mutual fascination.\n\n\n\n\nmedia info:\nGeneral\nUnique ID                                : 216142723536685303551084578519889888314 (0xA29B9308BCC30FCA4DBBDE934E46443A)\nComplete name                            : Quantum.Love.[Une.Rencontre].2014.DVDRip.x264.HORiZON-ArtSubs.mkv\nFormat                                   : Matroska\nFormat version                           : Version 2\nFile size                                : 1.65 GiB\nDuration                                 : 1h 18mn\nOverall bit rate                         : 3 017 Kbps\nWriting application                      : HandBrake 0.9.5\nWriting library                          : libmkv 0.6.4.1\n\nVideo\nID                                       : 1\nFormat                                   : AVC\nFormat/Info                              : Advanced Video Codec\nFormat profile                           : &lt;a class=&quot;__cf_email__&quot; href=&quot;/cdn-cgi/l/email-protection&quot; data-cfemail=&quot;87cfeee0efc7cbb4a9b7&quot;&gt;[email&amp;#160;protected]&lt;/a&gt;&lt;script cf-hash='f9e31' type=&quot;text/javascript&quot;&gt;\n/* &lt;![CDATA[ */!function(){try{var t=&quot;currentScript&quot;in document?document.currentScript:function(){for(var t=document.getElementsByTagName(&quot;script&quot;),e=t.length;e--;)if(t[e].getAttribute(&quot;cf-hash&quot;))return t[e]}();if(t&amp;&amp;t.previousSibling){var e,r,n,i,c=t.previousSibling,a=c.getAttribute(&quot;data-cfemail&quot;);if(a){for(e=&quot;&quot;,r=parseInt(a.substr(0,2),16),n=2;a.length-n;n+=2)i=parseInt(a.substr(n,2),16)^r,e+=String.fromCharCode(i);e=document.createTextNode(e),c.parentNode.replaceChild(e,c)}}}catch(u){}}();/* ]]&gt; */&lt;/script&gt;\nFormat settings, CABAC                   : Yes\nFormat settings, ReFrames                : 4 frames\nCodec ID                                 : V_MPEG4/ISO/AVC\nDuration                                 : 1h 18mn\nBit rate                                 : 2 587 Kbps\nWidth                                    : 720 pixels\nHeight                                   : 432 pixels\nDisplay aspect ratio                     : 2.40:1\nOriginal display aspect ratio            : 2.40:1\nFrame rate mode                          : Constant\nFrame rate                               : 25.000 fps\nColor space                              : YUV\nChroma subsampling                       : 4:2:0\nBit depth                                : 8 bits\nScan type                                : Progressive\nBits/(Pixel*Frame)                       : 0.333\nStream size                              : 1.37 GiB (83%)\nWriting library                          : x264 core 112\nEncoding settings                        : cabac=1 / ref=3 / deblock=1:0:0 / analyse=0x3:0x113 / me=hex / subme=7 / psy=1 / psy_rd=1.00:0.00 / mixed_ref=1 / me_range=16 / chroma_me=1 / trellis=1 / 8x8dct=1 / cqm=0 / deadzone=21,11 / fast_pskip=1 / chroma_qp_offset=-2 / threads=6 / sliced_threads=0 / nr=0 / decimate=1 / interlaced=0 / constrained_intra=0 / bframes=3 / b_pyramid=2 / b_adapt=2 / b_bias=0 / direct=1 / weightb=1 / open_gop=0 / weightp=2 / keyint=250 / keyint_min=25 / scenecut=40 / intra_refresh=0 / rc_lookahead=50 / rc=abr / mbtree=1 / bitrate=2587 / ratetol=1.0 / qcomp=0.60 / qpmin=3 / qpmax=51 / qpstep=4 / ip_ratio=1.40 / aq=1:1.00\nLanguage                                 : English\nDefault                                  : Yes\nForced                                   : No\nColor primaries                          : BT.601 NTSC\nTransfer characteristics                 : BT.709\nMatrix coefficients                      : BT.601\n\nAudio\nID                                       : 2\nFormat                                   : AC-3\nFormat/Info                              : Audio Coding 3\nMode extension                           : CM (complete main)\nFormat settings, Endianness              : Big\nCodec ID                                 : A_AC3\nDuration                                 : 1h 18mn\nBit rate mode                            : Constant\nBit rate                                 : 448 Kbps\nChannel(s)                               : 6 channels\nChannel positions                        : Front: L C R, Side: L R, LFE\nSampling rate                            : 48.0 KHz\nBit depth                                : 16 bits\nCompression mode                         : Lossy\nStream size                              : 251 MiB (15%)\nLanguage                                 : French\nDefault                                  : Yes\nForced                                   : No\n\nText\nID                                       : 3\nFormat                                   : VobSub\nCodec ID                                 : S_VOBSUB\nCodec ID/Info                            : The same subtitle format used on DVDs\nLanguage                                 : French\nDefault                                  : No\nForced                                   : No\n\nMenu\n00:00:00.000                             : Chapter 1\n00:04:17.960                             : Chapter 2\n00:09:12.120                             : Chapter 3\n00:17:21.040                             : Chapter 4\n00:20:29.400                             : Chapter 5\n00:24:01.760                             : Chapter 6\n00:31:08.600                             : Chapter 7\n00:38:33.240                             : Chapter 8\n00:47:20.400                             : Chapter 9\n00:55:06.560                             : Chapter 10\n01:06:12.880                             : Chapter 11\n01:12:52.600                             : Chapter 12\n\n","torrent":{"xt":"urn:btih:4b504cad1768babc28c03cabb5a6b61c7827f29d","amp;dn":"Quantum.Love.%5BUne.Rencontre%5D.2014.DVDRip.x264.HORiZON-ArtSubs","amp;tr":["udp%3A%2F%2Ftracker.openbittorrent.com%3A80","udp%3A%2F%2Fopen.demonii.com%3A1337","udp%3A%2F%2Ftracker.coppersurfer.tk%3A6969","udp%3A%2F%2Fexodus.desync.com%3A6969"],"infoHash":"4b504cad1768babc28c03cabb5a6b61c7827f29d","infoHashBuffer":{"type":"Buffer","data":[75,80,76,173,23,104,186,188,40,192,60,171,181,166,182,28,120,39,242,157]},"announce":[],"urlList":[]}}